<svg width="32" height="32" viewBox="0 0 32 32" fill="#2F2F2F" xmlns="http://www.w3.org/2000/svg">
<path d="M18.6666 21.3333H21.3333V18.6667H24V16H21.3333V13.3333H18.6666V16H16V18.6667H18.6666V21.3333ZM5.33329 26.6667C4.59996 26.6667 3.97218 26.4056 3.44996 25.8833C2.92774 25.3611 2.66663 24.7333 2.66663 24V8.00001C2.66663 7.26668 2.92774 6.6389 3.44996 6.11668C3.97218 5.59445 4.59996 5.33334 5.33329 5.33334H13.3333L16 8.00001H26.6666C27.4 8.00001 28.0277 8.26112 28.55 8.78334C29.0722 9.30557 29.3333 9.93334 29.3333 10.6667V24C29.3333 24.7333 29.0722 25.3611 28.55 25.8833C28.0277 26.4056 27.4 26.6667 26.6666 26.6667H5.33329ZM5.33329 24H26.6666V10.6667H14.9L12.2333 8.00001H5.33329V24Z"/>
</svg>
