<svg width="128" height="128" viewBox="0 0 128 128" fill="none" xmlns="http://www.w3.org/2000/svg">
<path d="M21.3334 106.667C18.4001 106.667 15.889 105.622 13.8001 103.533C11.7112 101.444 10.6667 98.9333 10.6667 96V32C10.6667 29.0667 11.7112 26.5556 13.8001 24.4667C15.889 22.3778 18.4001 21.3333 21.3334 21.3333H53.3334L64.0001 32H106.667C109.6 32 112.111 33.0444 114.2 35.1333C116.289 37.2222 117.333 39.7333 117.333 42.6667H59.6001L48.9334 32H21.3334V96L34.1334 53.3333H125.333L111.6 99.0667C110.889 101.378 109.578 103.222 107.667 104.6C105.756 105.978 103.645 106.667 101.333 106.667H21.3334ZM32.5334 96H101.333L110.933 64H42.1334L32.5334 96Z" fill="#2F2F2F"/>
</svg>
